<svg xmlns="http://www.w3.org/2000/svg" viewBox="0 0 396.02 432.6"><defs><style>.cls-1{fill:#e5d1b2;}.cls-2{fill:#e4d1b3;}.cls-3{fill:#e5d2b3;}.cls-4{fill:#e6d2b4;}.cls-5{fill:#e6d3b5;}</style></defs><title>Ativo 8@2x@30transparente</title><g id="Camada_2" data-name="Camada 2"><g id="Camada_1-2" data-name="Camada 1"><path class="cls-1" d="M.14,209.12H27.71c1.88-2.35,1.26-4.43,1.27-6.35q.06-48.5,0-97c0-13.65,6.12-23.73,17.75-30.15,23.11-12.76,46.49-25,69.74-37.56,19.15-10.32,38.38-20.49,57.34-31.15,16.59-9.32,32.37-9.3,49,.52,17.57,10.4,35.9,19.5,53.88,29.2,19.89,10.72,39.73,21.53,59.64,32.21,7.44,4,15.45,7,21.51,13.26A31.15,31.15,0,0,1,367,104.56q0,48.75,0,97.49v6.73h28.28c1.16,5.94.6,11.15.5,16.71H.51C-.41,220.24.21,215.16.14,209.12ZM207.52,86.3c12.28,1.35,23.73,4.45,33.88,11.3,15.49,10.47,26.14,24.37,27.5,43.45,1.79,25-11.11,42.13-31.56,54.68-12.83,7.87-26.91,8.19-41.39,8.31a64.34,64.34,0,0,1-38.76-12.12c-15.49-10.91-25.33-25.57-26.07-44.84-1-24.76,16.13-45.5,38.26-55.12a80.82,80.82,0,0,1,22.75-5.73c1.15-1.92,1.3-3.44,0-5.34H180.75c-7.89-8.26-13.67-17.68-21.73-25.51L66.08,105.5C66,140.73,65.8,175,67.33,209.82c87.93-.33,175.61.69,263.44-1v-104L240.25,56.07l-14,16.79L206.56,48.5,212,40.91l-13-7.16c-3.65,2.58-7.83,3.83-11.18,7.07,5.5,6.66,10.82,13,16,19.44s10.49,13.11,16.55,20.68H207.74A7.06,7.06,0,0,0,207.52,86.3ZM198.37,195c16.31-.54,29.54-4.6,41.3-13.86,21.61-17,23.86-48.11,4.5-67.57-24.57-24.7-70-23.78-92,4.79-10.41,13.51-12.81,28.93-5.46,44.55C157.2,185.2,176.57,193.63,198.37,195Zm161.4,13.34c.09-1.73.23-3.2.23-4.67,0-33,.07-66,0-99,0-9.74-4.46-17.44-12.85-22.24-23.21-13.29-47-25.58-70.6-38.09C255.24,33.09,234.2,21.34,213,9.91c-6.76-3.64-13.87-5.1-21.62-3.18-9.57,2.37-17.28,8.41-25.88,12.65-15.17,7.47-29.82,16-44.7,24.05C97,56.32,73.1,69.08,49.39,82.15,40.57,87,36,94.93,36,105.11Q36,154.35,36,203.6c0,1.61-.46,3.34,1,5.16,2.65.06,5.56.52,8.34-.22,1.07-2.21.64-4.24.64-6.19,0-31.83.11-63.66,0-95.49,0-8.75,3.59-15,11.21-19,2.05-1.09,4.22-2,6.26-3Q91.74,69.58,120,54.31c19.28-10.42,38.74-20.54,57.73-31.47,11.88-6.84,22.9-10.81,36.3-3.16,24.07,13.75,48.7,26.53,73.12,39.66,16.38,8.82,32.7,17.76,49.26,26.22,10.53,5.39,15.85,13,15.66,25.26-.46,30.66-.16,61.33-.12,92,0,1.92-.64,4,1,5.93C355,208.85,357.1,209.21,359.77,208.35Z"/><path class="cls-1" d="M29,330.72c-10-.46-18.94,2.69-28.59,3.12v-16.4a1211.44,1211.44,0,0,1,395,0c1,5.43.46,10.64.36,16.38-9.71-.29-18.62-3.35-28.21-3.3a15.64,15.64,0,0,0-1.36,3.28c-2.06,11.08-9.18,18.3-18.48,23.48-16.68,9.29-33.53,18.27-50.36,27.26-19,10.17-38.15,20.19-57.2,30.31-8.37,4.44-16.61,9.14-25.05,13.43-11.41,5.79-23.06,5.85-34.38-.08-16.18-8.46-32.13-17.35-48.24-26-19.47-10.39-39-20.64-58.51-31-9.38-5-18.91-9.74-28-15.22C36.62,350.35,30.63,341.94,29,330.72Zm38.47-5.56-.58,1.56,131.8,70.95,132-70.93c-.1-.45-.19-.9-.29-1.36A1153.22,1153.22,0,0,0,67.5,325.16Zm284.13,3c-1,6.51-3.85,11.85-9.63,15-18.57,10-37.24,19.73-55.8,29.73-24,12.91-47.88,26-71.82,39-8.12,4.41-16.48,7.66-25.52,2.86q-42.86-22.8-85.61-45.84C87.59,360.44,72,351.93,56.34,343.49a19.34,19.34,0,0,1-9.26-10.66c-.61-1.66-.68-3.58-2.25-5l-8.68,1.51a26.22,26.22,0,0,0,14,21c20,11.14,40.26,21.9,60.43,32.76,22.36,12.05,45,23.62,67,36.21,13.6,7.76,26.39,9,39.81.39,5.87-3.76,12.24-6.67,18.4-9.93,19.83-10.47,39.47-21.3,59.2-32,16.94-9.15,34-18.07,50.81-27.49,8-4.47,13.1-11.34,13.88-21.18Z"/><path class="cls-1" d="M4.47,242.11H16.86V260.2c4.47,1.12,8.39.43,12.89.59V242.66c4.41-1.43,8.35-.68,12.73-.67V290.5H30.1V270.44c-4.45-1-8.37-.6-12.89-.34V290c-4.43,1.46-8.37.68-12.74.7Z"/><path class="cls-1" d="M284.9,290.44v-20.1c-4.29-.86-8.2-.55-12.72-.21V290c-4.43,1.52-8.38.54-12.72.87v-48.7h12.43v18.11c4.48.95,8.39.6,12.89.28V242.67c4.42-1.5,8.36-.53,12.72-.85v48.65A46.63,46.63,0,0,1,284.9,290.44Z"/><path class="cls-1" d="M383.15,272.91c.35-10.22-.9-20.29.22-30.71a33.46,33.46,0,0,1,10.29,0v48c-3.5,1.24-7.11.46-11.18.54l-15.7-30.9c.72,10.14.12,20.22.22,30.57a33.93,33.93,0,0,1-10.64.08v-48c3.5-1.23,7.11-.45,11.14-.53Q375.31,257.38,383.15,272.91Z"/><path class="cls-1" d="M347.22,266c-.21,2.81-.05,5.7-.67,8.41-2.95,12.88-10.16,18.33-22.64,17.41-9.54-.71-16.82-8.71-17.8-20.16-.71-8.2-.3-16.38,5-23.28s14.05-9.09,23-6.35c6.78,2.08,12.37,9.83,12.88,18,.12,2,0,4,0,6Zm-20.73-17.71c-8.86,5.85-7.42,14.48-7.41,22.5,0,7.15,2.58,11.15,8,13,6.65-2.79,6.76-9,6.85-14.88C334.06,261.48,335.22,253.53,326.49,248.25Z"/><path class="cls-1" d="M136.37,242.07h12.34v19.71l1,.2,11.19-19.85h13.68L160.21,263.2c4.85,9,9.62,17.93,14.65,27.33h-13.6l-9.72-19.9c-4.77,6.42-1.23,13.43-3.13,19.84h-12Z"/><path class="cls-1" d="M62.93,242.08h15.3l12.61,48.26c-4.12.92-7.87.38-11.82.37l-3.46-10.65H64.8c-2.74,2.85-1.64,7.4-4.54,10.54H48.9C53.65,274.18,58.28,258.18,62.93,242.08ZM74.5,271.86c-1.33-6.69-2.64-13.31-4-19.92-1.44,6.77-4.49,13.14-4.49,20.32C69.09,272.84,71.62,273.24,74.5,271.86Z"/><path class="cls-1" d="M202.58,280H191.76c-2.55,3-1.72,7.25-4.35,10.44a33.5,33.5,0,0,1-11.46-.1c4.73-16.31,9.38-32.32,14-48.2h15.32c4.2,16.07,8.33,31.91,12.56,48.1-4.1,1.06-7.93.48-11.89.34C204.78,287,203.74,283.67,202.58,280Zm-5-28.16c-1.16,6.82-4.72,13.18-4.37,20.55,3.07.29,5.63,1,8.3-.66C200.15,265,198.85,258.45,197.55,251.86Z"/><path class="cls-1" d="M126.73,282.09c.14,2.59,1.54,4.64,1.09,7-11,3.91-23.72,1.06-29.38-6.43-6.31-8.33-6.29-22.52,0-31.41,4.93-7,19.61-11.78,29.64-8.22.57,2.66-.56,5-1.55,7.38-11.77-2-19.64,3.64-19.51,16.05C107.12,278.22,112.63,282.8,126.73,282.09Z"/><path class="cls-1" d="M241.12,290.55h-13V251.73c-3.64-1.83-7.11-.23-10.45-1.38-1.4-2.38-.65-5-.5-8h34.39c1,2.55.39,5.13.42,7.74-3.47,1.51-6.92.13-10.86,1.3Z"/><path class="cls-1" d="M200.12,122.36c3.25,5.59,4.95,12.91,10.25,14.68a134.81,134.81,0,0,0,17.26,4.36c-5.5,4.08-9.76,6.3-14.37,10.12.18,5.71,3.05,11.64,4,17.25-5.92-2.42-11.44-5.73-17.14-8.37-5.4,2.37-10.73,5.38-17,8.37.5-6.07,3-12,4-17.44-4.06-4.25-9.54-5.72-14.79-9.93a109,109,0,0,1,13.79-3.57c4.36-.92,6.22-.93,8.1-4.75C196.24,129,198,126,200.12,122.36Z"/><path class="cls-2" d="M177.11,173.76c4.61-.52,7.84,2.09,10.36,4.44,8.7,1,16.79.67,25.48.3,2.57-3.44,6.94-4.84,11.63-5.86,1.4-4.19,4.65-6.37,8.82-7.92-.18-4.75,2-8.37,5.92-11-2.54-4.39-1.53-8.33.93-12.11-6.36-4.2-5.52-13.18,1.67-18.42,4,3.54,4.36,7.4,1.27,14.63,1.81.32,3.2-2,5.4-.35,1.94,4.77-1,8.6-4.18,12.93l4.55.72c.09,6.57-5,8.94-9.05,12.13,1,1.27,3-.11,4,1.95-1.9,5.67-7.26,6.63-12.31,8.1-.48,2.22,2.72,1.6,2.71,3.6-4.1,4.69-9.74,4-15.16,3.91-.91,2,1.68,2.36,1.43,4.5-5,3.17-10.36,1.24-15.76-.21-.41,2.24,2.37,4,.51,6.2-2.55.63-3.46-1.87-5.09-2.92-1.76.8-2.44,2.94-4.74,3.17-2.87-3.08.67-4.74,2-7.51-6.15,2.35-12,4.52-17.92,1.28-.6-2.39,2.43-2.21,2.48-4.33-5.38-.66-11.45,1.26-15.8-3.77,0-2.39,2.25-2.49,3.67-3.44,1.35.78,1.54,3,3.54,2.9S175.73,174.52,177.11,173.76Zm22.14,7.91c.93,1.46,1.78,2,3.24,1.68C201.9,182.25,201.45,181.2,199.25,181.67Z"/><path class="cls-2" d="M236.12,118.78l-4.93,4c-20.34-15.59-40.73-16.12-61.46-.25-2.13-.43-3.74-2-5.21-3.86C179.65,99.93,217.93,98.14,236.12,118.78Z"/><path class="cls-2" d="M177.11,173.76c-1.38.76-1.56,3-3.61,3s-2.19-2.12-3.54-2.9c-3.57-1.58-7.75-1.69-10.81-4.43-1.31-1.18-2.83-2.31-3.12-4.1.93-2.07,2.83-1,4.37-1.89-4.09-3.08-8.67-5.73-9.29-11.48.82-2,3.1-.43,4.4-1.77-1.88-4.31-6.49-8-3.75-13.39,1.82-.81,3,.83,4.91.86-1-4.94-3.77-10,1.27-14.14,7.85,4.32,8.92,12.16,2.55,18.08,3.29,7.92,3.3,8.17.28,11.73,3.4,2.89,6.45,6,6,11.36C172.09,165.45,174,170.23,177.11,173.76Z"/><path class="cls-3" d="M207.35,338.39c8.79-1.36,11-.6,13.5,4.59-.26,2.42-.92,4.75-3.12,6.32,2.19,3.41,2.19,3.41,3,8.77-1.31,1.1-2.67.93-4.13.18-1.18-2.33-.17-5.82-3.83-7.18-1.45,2.13-.28,4.6-1.07,6.82-1.1,1.35-2.52,1-4.3.39Zm5.21,2.75a8,8,0,0,0,.08,6.52c2.21.07,3.31-1,3.34-3.13C216,342.54,215.46,341,212.56,341.14Z"/><path class="cls-3" d="M176.26,358.62V338.43c4.54-1,9.14-1.64,12.25,2.54a11.61,11.61,0,0,1,.94,13.11C186.57,359.41,181.73,359,176.26,358.62Zm4.82-17.45c0,4.88-.58,9.49.44,14.65,4.44-2.06,4.64-5.56,4.46-9.19C185.84,343.84,185,341.52,181.08,341.17Z"/><path class="cls-3" d="M238.39,338.24c5.13-.76,10.05-1.26,12.81,3.61,2.39,4.21,2.71,8.95-.31,13.21s-7.59,4-12.5,3.45Zm5.06,17.47c4.67-1.9,4.66-5.52,4.53-9.11-.11-2.8-1-5.08-4.87-5.43C243,346.07,242.6,350.67,243.45,355.71Z"/><path class="cls-4" d="M173.11,348.41a12.72,12.72,0,0,1-1.91,7.15,6,6,0,0,1-2.89,2.63c-4,1.82-7.8-.14-9.63-5.05-2.17-5.83.47-13.71,5-15.05,4.05-1.19,7.86,1.47,9,6.36A32.62,32.62,0,0,1,173.11,348.41Zm-7.81,7c3.81-3.6,3.83-10.49.24-14C162.09,344.7,161.86,350.93,165.3,355.41Z"/><path class="cls-3" d="M198.31,345.78c1.17,1.75,4,0,4.56,2.52-.54,2.6-3.38.71-4.6,2.54a5.57,5.57,0,0,0,0,3.88c1.38,2.08,4.62-.3,5.68,3.16-3.37,1.76-6.84.82-10.6.66V338.35c3.3-.53,6.51-1.3,9.65.52-.68,3-3.49,1.28-4.71,3.07A5,5,0,0,0,198.31,345.78Z"/><path class="cls-3" d="M229.09,345.48c1.54,2,4.41.2,4.76,3-.69,2.24-3,.76-4.4,2.08a4.84,4.84,0,0,0-.08,4.31c1.47,1.81,4.62-.31,5.59,2.9-3.3,2.09-6.74.71-10,.95-1.21-3.71-1.41-14.6-.42-20.18,4.93-1.09,5.88-1,9.27.53-.16,2.92-3,1.17-4.18,2.41S229.14,344.26,229.09,345.48Z"/><path class="cls-5" d="M155.5,338.42c.68.9.61,1.8-.27,3.1-5-.33-6.5,2.63-6.34,7.49.16,4.67,2.57,6.46,6.81,6.59-.61,3.22-2.06,3.95-5.36,2.87-4.84-1.59-7.47-7.41-6-13.23S149.42,337.35,155.5,338.42Z"/></g></g></svg>